<svg width="158" height="39" viewBox="0 0 158 39" fill="none" xmlns="http://www.w3.org/2000/svg">
<path fill-rule="evenodd" clip-rule="evenodd" d="M6.40285 21.2926C6.40285 21.6753 6.46628 22.1251 6.61231 22.635C6.75354 23.1484 7.042 23.6348 7.45015 24.0928C7.86788 24.5556 8.45796 24.9466 9.24792 25.2645C10.0199 25.5836 11.0505 25.7403 12.3264 25.7403C13.0302 25.7403 13.7184 25.6861 14.4078 25.5907C15.0997 25.4883 15.7197 25.3081 16.2906 25.0526C16.8436 24.7982 17.2948 24.4402 17.6419 23.9774C17.995 23.5158 18.1698 22.9176 18.1698 22.1722C18.1698 21.6388 18.0525 21.1925 17.8083 20.8322C17.545 20.4683 17.2062 20.1739 16.7538 19.9301C16.2906 19.6899 15.7556 19.4756 15.1344 19.299C14.5072 19.1223 13.8333 18.941 13.0996 18.7585L10.0941 18.0719C8.96306 17.8152 7.85112 17.5373 6.78586 17.2264C5.7218 16.9226 4.77863 16.4763 3.95994 15.9064C3.13885 15.3317 2.48174 14.571 1.97185 13.6349C1.46556 12.7128 1.20941 11.4834 1.20941 9.9785C1.20941 9.46743 1.27525 8.89749 1.38297 8.28869C1.50386 7.67517 1.70135 7.05695 1.98981 6.42695C2.27587 5.80048 2.67444 5.18697 3.17835 4.59112C3.69183 3.99056 4.34056 3.46772 5.14967 3.01082C5.9552 2.57159 6.91273 2.20301 8.03425 1.92392C9.15337 1.64249 10.4652 1.5 11.9733 1.5C14.0954 1.5 15.8693 1.80852 17.2781 2.42086C18.6844 3.03555 19.794 3.79391 20.6318 4.6865C21.4649 5.58146 22.0442 6.54353 22.3853 7.58332C22.7145 8.61487 22.8856 9.55929 22.8856 10.4001H17.2781C17.2218 10.0974 17.1344 9.70295 17.0195 9.22721C16.9058 8.75736 16.6509 8.304 16.2607 7.86947C15.8693 7.43142 15.2984 7.05695 14.5718 6.73901C13.8285 6.41988 12.8159 6.2562 11.5424 6.2562C10.9978 6.2562 10.4305 6.31744 9.84997 6.42695C9.26109 6.54353 8.74163 6.73547 8.26406 6.9863C7.79846 7.24065 7.41185 7.58332 7.12579 8.00372C6.81459 8.42764 6.67215 8.94106 6.67215 9.55928C6.67215 10.0974 6.76192 10.5367 6.96061 10.8782C7.15212 11.2244 7.41065 11.5011 7.7015 11.706C8.00911 11.9097 8.3263 12.0616 8.67939 12.1652C9.02769 12.2642 9.35325 12.356 9.63214 12.4337L16.457 14.0847C17.4121 14.312 18.3385 14.5934 19.2266 14.9255C20.1088 15.2599 20.8892 15.705 21.5606 16.2679C22.2441 16.832 22.7815 17.5373 23.1741 18.3805C23.5894 19.2177 23.7857 20.2575 23.7857 21.4834C23.7857 22.8694 23.5715 24.0516 23.1466 25.0325C22.7097 26.0158 22.1627 26.8436 21.4649 27.5066C20.7767 28.1731 20.019 28.703 19.1812 29.0975C18.3553 29.5014 17.5246 29.7958 16.7095 30.0019C15.8896 30.2068 15.1344 30.3363 14.4234 30.4046C13.7232 30.4635 13.1762 30.5 12.7489 30.5C10.2043 30.5 8.14676 30.1809 6.5764 29.5426C5.00006 28.8973 3.7792 28.1213 2.92221 27.1804C2.07239 26.2513 1.49787 25.2445 1.20941 24.1729C0.926942 23.0931 0.785706 22.1345 0.785706 21.2926H6.40285Z" fill="#231F20"/>
<path fill-rule="evenodd" clip-rule="evenodd" d="M51.7857 20.1081C51.7857 21.9341 51.5221 23.4967 51.0006 24.8042C50.4873 26.1128 49.7425 27.193 48.764 28.0343C47.7948 28.8803 46.6126 29.5049 45.2313 29.9011C43.85 30.2949 42.2971 30.5 40.5751 30.5C39.9454 30.5 39.2536 30.4511 38.5031 30.3625C37.756 30.2716 36.9986 30.0933 36.2308 29.8463C35.4503 29.5853 34.6825 29.238 33.947 28.8174C33.1964 28.399 32.5219 27.8467 31.9141 27.1487C31.182 26.3015 30.6467 25.3204 30.3325 24.2087C30.0171 23.0924 29.8306 21.8386 29.7857 20.4566V1.5H35.6023V20.0767C35.6023 21.0462 35.7266 21.8805 35.9764 22.5715C36.2308 23.2625 36.5796 23.8358 37.0239 24.2833C37.4636 24.7308 37.9816 25.0629 38.579 25.2843C39.1776 25.4975 39.7969 25.6117 40.4645 25.6117C42.4329 25.6117 43.85 25.1549 44.696 24.2414C45.549 23.3289 45.9772 22.0355 45.9772 20.3435V1.5H51.7857V20.1081Z" fill="#231F20"/>
<g filter="url(#filter0_d)">
<path fill-rule="evenodd" clip-rule="evenodd" d="M65.9541 30.5H59.7857V1.5H80.7857V6.54881H65.9541V13.5229H78.9363V18.4386H65.9541V30.5Z" fill="#231F20"/>
<path fill-rule="evenodd" clip-rule="evenodd" d="M65.9541 30.5H59.7857V1.5H80.7857V6.54881H65.9541V13.5229H78.9363V18.4386H65.9541V30.5Z" stroke="black"/>
</g>
<path fill-rule="evenodd" clip-rule="evenodd" d="M92.9541 30.5H86.7857V1.5H107.786V6.54881H92.9541V13.5229H105.937V18.4386H92.9541V30.5Z" fill="#231F20"/>
<path fill-rule="evenodd" clip-rule="evenodd" d="M116.288 30.5H109.786L116.278 1.5H122.786L116.288 30.5Z" fill="#231F20"/>
<path fill-rule="evenodd" clip-rule="evenodd" d="M126.972 0.5H141.367V1.6265H135.617L142.335 13.0729L150.295 1.6265H145.197V0.5H156.122V1.6265H151.834L143.16 14.2678L152.961 29.3747H157.786V30.5H143.033V29.3747H147.684L140.595 18.0544L132.607 29.3747H137.937V30.5H126.786V29.3747H131.033L139.738 16.8967L130.402 1.6265H126.972V0.5Z" fill="#231F20"/>
<defs>
<filter id="filter0_d" x="55.2857" y="1" width="30" height="38" filterUnits="userSpaceOnUse" color-interpolation-filters="sRGB">
<feFlood flood-opacity="0" result="BackgroundImageFix"/>
<feColorMatrix in="SourceAlpha" type="matrix" values="0 0 0 0 0 0 0 0 0 0 0 0 0 0 0 0 0 0 127 0"/>
<feOffset dy="4"/>
<feGaussianBlur stdDeviation="2"/>
<feColorMatrix type="matrix" values="0 0 0 0 0 0 0 0 0 0 0 0 0 0 0 0 0 0 0.25 0"/>
<feBlend mode="normal" in2="BackgroundImageFix" result="effect1_dropShadow"/>
<feBlend mode="normal" in="SourceGraphic" in2="effect1_dropShadow" result="shape"/>
</filter>
</defs>
</svg>
