<svg width="13" height="16" viewBox="0 0 13 16" fill="none" xmlns="http://www.w3.org/2000/svg">
<path fill-rule="evenodd" clip-rule="evenodd" d="M4.0761 2.17114V11.5711C3.5641 11.4639 2.9689 11.5047 2.3785 11.7231C1.0497 12.2167 0.580901 13.4175 0.932901 14.4047C1.2849 15.3927 2.3249 15.7919 3.6529 15.2983C4.7809 14.8799 5.5201 13.9503 5.5017 13.0751C5.5017 13.0751 5.5017 8.09034 5.5017 5.31034L11.1257 4.02154V9.98634C10.6129 9.87994 10.0177 9.91994 9.4273 10.1391C8.0993 10.6327 7.6305 11.8335 7.9825 12.8207C8.3337 13.8087 9.3737 14.2079 10.7017 13.7151C11.8305 13.2959 12.5689 12.3663 12.5513 11.4919V0.350342L4.0761 2.17114Z" fill="white"/>
</svg>
